
<svg xmlns="http://www.w3.org/2000/svg" width="24" height="24" viewBox="0 0 24 24" fill="none" stroke="#22c55e" stroke-width="2" stroke-linecap="round" stroke-linejoin="round">
  <path d="M2 22c1.25-1.25 2.5-2.5 3.5-2.5 1.5 0 2 1.5 3 1.5s1.5-1.5 3-1.5 2 1.5 3 1.5 1.5-1.5 3-1.5 2 1.5 3 1.5 1.5-1.5 3-1.5c1 0 2.25 1.25 3.5 2.5"/>
  <path d="M19.25 7a.75.75 0 1 0 0-1.5.75.75 0 0 0 0 1.5z"/>
  <path d="M2 19c3.5-3.5 6-7 11-7 6 0 8.5 3.5 9 5"/>
  <path d="M2 16c3.5-3.5 6-7 11-7 5 0 8 2 9 4"/>
  <path d="M2 13c3.5-3.5 6-7 11-7 4 0 7 1 8.5 2.5"/>
</svg>
